<?xml version="1.0" encoding="utf-8"?>
<!-- Generator: Adobe Illustrator 24.1.2, SVG Export Plug-In . SVG Version: 6.00 Build 0)  -->
<svg version="1.2" baseProfile="tiny" id="Layer_1" xmlns="http://www.w3.org/2000/svg" xmlns:xlink="http://www.w3.org/1999/xlink"
	 x="0px" y="0px" width="24px" height="40px" viewBox="0 0 24 40" overflow="visible" xml:space="preserve">
<path fill="#141414" d="M12,2.8c5.1,0,9.2,4.1,9.2,9.2v16c0,5.1-4.1,9.2-9.2,9.2S2.8,33.1,2.8,28V12C2.8,6.9,6.9,2.8,12,2.8 M12,0
	L12,0C5.4,0,0,5.4,0,12v16c0,6.6,5.4,12,12,12l0,0c6.6,0,12-5.4,12-12V12C24,5.4,18.6,0,12,0L12,0z"/>
<g>
	<path fill="#141414" d="M12,15.8c-1.2,0-2.1-1-2.1-2.1V7.4c0-1.2,1-2.1,2.1-2.1s2.1,1,2.1,2.1v6.3C14.1,14.9,13.2,15.8,12,15.8z"/>
</g>
</svg>
